<?xml version="1.0" encoding="UTF-8"?>
<svg id="Layer_1" xmlns="http://www.w3.org/2000/svg" baseProfile="tiny" version="1.2" viewBox="0 0 900.46 650.89">
  <!-- Generator: Adobe Illustrator 29.3.1, SVG Export Plug-In . SVG Version: 2.1.0 Build 151)  -->
  <path d="M368.62,515.39"/>
  <line x1="183.01" y1="-23.44" x2="183.01" y2="67.78" fill="none"/>
  <text transform="translate(239.45 435.23)" font-family="LEMONMILK-Bold, &apos;LEMON MILK&apos;" font-size="226.57" font-weight="700"><tspan x="0" y="0">APEX</tspan></text>
  <path d="M382.59,444.01c3.21,14.69-.41,30.32-10.2,42.05l-112.66,135c-4.49,5.38-11.04,8.47-17.94,8.47h-40.1V42.23l.38-.84,104.85,232.34,7.14-15.57L200.12,5.67,4.82,436.75c-8.52,18.81-5.59,40.97,7.5,56.77,34.63,41.79,101.29,122.01,124.6,148.58,4.91,5.6,11.9,8.78,19.24,8.78h87.52c7.57,0,14.76-3.4,19.68-9.29l123.6-148.1c7.85-9.41,12.08-21.1,12.42-33.01.16-5.52-.55-11.07-2.09-16.48h-14.7Z"/>
</svg>