<?xml version="1.0" encoding="UTF-8"?>
<svg id="Layer_1" xmlns="http://www.w3.org/2000/svg" baseProfile="tiny" version="1.2" viewBox="0 0 595.28 841.89">
  <!-- Generator: Adobe Illustrator 29.4.0, SVG Export Plug-In . SVG Version: 2.1.0 Build 152)  -->
  <path d="M134.13,466.09"/>
  <path d="M316.88,123.18c7.96,14.24,16.47,28.36,25.01,42.37,52.06,85.36,106.02,169.97,157.02,255.83,3.37,5.67,10.08,12.63,3.25,17.97-23.57,11.4-78.59,137.35-73.65,152.75,1.63,5.07.87,6.3-3.38,9.82-13.57,11.25-32.03,22.19-46.78,32.75-18.03,12.9-36.01,27.08-54.35,39.44-4.32,2.91-7.28,5.45-12.87,2.48-34.82-25.61-69.72-51.1-105.48-75.64-2.03-2.04-3.49-4.32-2.63-7.19,10.84-27.36-61.03-147.43-70.28-152.96s-3.96-10.65.1-17.58c14.52-24.75,30.96-48.66,45.59-73.36l8.83,2.1c1.6.38.56-3.46.05-4.89l-1.07-7.46c-.36-1.01-.24-2.1.32-3.03l33.6-54.86c2.31-1.89,11.95,4.06,10.92.79-.73-2.33,2.71-24.04,3.13-25.6l81.17-132.93,1.5-.8ZM315.53,173.15v462.73l18.73-14.47-.24-108.71c-.03-12.66,7.42-24.36,19.52-30.63l107.29-55.69-48.17-82.97c-1.11-1.91-3.3-3.08-5.67-3.04-.25,0-.52,0-.81.01-13.83.11-24.88-2.56-31.94-14.21-8.2-13.53-2.81-23.15,3.9-35.02,1.08-1.91,1.09-4.19.01-6.1l-62.62-111.9Z"/>
</svg>