<svg xmlns="http://www.w3.org/2000/svg" width="24" height="24" viewBox="0 0 24 24" fill="none" stroke="currentColor" stroke-width="2" stroke-linecap="round" stroke-linejoin="round">
  <path d="M7 16V4a2 2 0 0 1 2-2h6a2 2 0 0 1 2 2v12"/>
  <path d="M17 8h2a2 2 0 0 1 2 2v8a2 2 0 0 1-2 2H5a2 2 0 0 1-2-2v-8a2 2 0 0 1 2-2h2"/>
  <path d="M12 12h.01"/>
  <path d="M8 12h.01"/>
  <path d="M16 12h.01"/>
  <path d="M12 16h.01"/>
  <path d="M8 16h.01"/>
  <path d="M16 16h.01"/>
  <path d="m9 7 3-3 3 3"/>
  <path d="m15 17-3 3-3-3"/>
</svg> 